<svg xmlns="http://www.w3.org/2000/svg" viewBox="0 0 24 24"><path fill="#107C10" d="M6.2 4.4C5.4 5 5 6.1 5 6.1v11.8c0 0 0.4 1.1 1.2 1.7 1.5 1.1 3.8 2.5 7.3 2.5 3.5 0 5.8-1.4 7.3-2.5 0.8-0.6 1.2-1.7 1.2-1.7V6.1c0 0-0.4-1.1-1.2-1.7C18.3 3.3 16 1.9 12.5 1.9c-3.5 0-5.8 1.4-7.3 2.5zm3.3 3.8c1.2 0 2.2 1 2.2 2.2s-1 2.2-2.2 2.2-2.2-1-2.2-2.2 1-2.2 2.2-2.2zm5 0c1.2 0 2.2 1 2.2 2.2s-1 2.2-2.2 2.2-2.2-1-2.2-2.2 1-2.2 2.2-2.2zm-5 5c1.2 0 2.2 1 2.2 2.2s-1 2.2-2.2 2.2-2.2-1-2.2-2.2 1-2.2 2.2-2.2zm5 0c1.2 0 2.2 1 2.2 2.2s-1 2.2-2.2 2.2-2.2-1-2.2-2.2 1-2.2 2.2-2.2z"/></svg>